<?xml version="1.0" encoding="utf-8"?>
<!-- Generator: Adobe Illustrator 24.0.0, SVG Export Plug-In . SVG Version: 6.00 Build 0)  -->
<svg version="1.1" id="Layer_1" xmlns="http://www.w3.org/2000/svg" xmlns:xlink="http://www.w3.org/1999/xlink" x="0px" y="0px"
	 viewBox="0 0 566.93 566.93" style="enable-background:new 0 0 566.93 566.93;" xml:space="preserve">
<style type="text/css">
	.st0{fill:#FDBE1F;}
	.st1{fill:#FDBF23;}
</style>
<g>
	<path class="st0" d="M190.71,321.19c3.01-7.21,5.88-14.12,8.78-21.03c10.91-26.05,21.85-52.08,32.71-78.15
		c0.89-2.14,2-2.93,4.37-2.86c6.3,0.19,12.62,0.12,18.93,0.03c1.55-0.02,2.35,0.41,2.97,1.9c13.51,32.69,27.08,65.35,40.63,98.02
		c0.25,0.6,0.42,1.22,0.73,2.1c-8.9,0-17.58-0.02-26.25,0.02c-1.46,0.01-1.61-1.02-1.99-1.99c-2.05-5.22-4.2-10.4-6.15-15.66
		c-0.65-1.76-1.43-2.5-3.45-2.48c-11.47,0.12-22.94,0.1-34.42,0.01c-1.88-0.02-2.64,0.65-3.24,2.34c-1.86,5.29-3.9,10.51-5.85,15.77
		c-0.36,0.97-0.47,2.02-1.95,2.01C208.02,321.17,199.53,321.19,190.71,321.19z M245.13,246.96c-0.43,1-0.7,1.56-0.91,2.13
		c-3.76,10.14-7.49,20.28-11.27,30.41c-0.5,1.34-0.07,1.68,1.22,1.68c7.25-0.03,14.5-0.03,21.75,0c1.54,0.01,1.43-0.62,0.99-1.74
		c-0.9-2.29-1.65-4.65-2.49-6.96C251.38,264.11,248.33,255.75,245.13,246.96z"/>
	<path class="st0" d="M356.41,257.14c0-6.78,0-13.05,0-19.32c0-7.54,0.08-15.08-0.05-22.61c-0.04-2.19,0.66-2.75,2.77-2.71
		c6.02,0.13,12.04,0.17,18.05-0.01c2.4-0.07,3,0.62,3,2.99c-0.08,28.62-0.05,57.25-0.05,85.88c0,5.82-0.06,11.64,0.04,17.46
		c0.03,1.76-0.32,2.51-2.31,2.46c-5.82-0.14-11.66-0.1-17.48-0.01c-1.65,0.03-2.16-0.49-2.07-2.11c0.12-2.25,0.03-4.52,0.03-7.52
		c-4.01,5.3-8.79,8.38-14.46,10.06c-14.51,4.3-29.49-1.42-37.5-14.27c-9.24-14.81-7.72-35.67,3.24-48.64
		c11.42-13.5,33.89-14.94,45.63-2.51C355.42,256.48,355.68,256.61,356.41,257.14z M357.24,287.63c0.08-13.76-9.65-22.34-20.44-20.08
		c-6.9,1.44-11.12,5.76-12.78,12.36c-1.87,7.4-0.57,14.33,5.3,19.61c5.26,4.74,11.59,5.25,17.88,2.41
		C354.04,298.85,356.94,292.96,357.24,287.63z"/>
	<path class="st0" d="M512.03,295.56c3.25-10.48,6.23-20.07,9.21-29.66c1.52-4.9,3.1-9.77,4.52-14.7c0.41-1.43,1.01-2.03,2.55-2.01
		c7.07,0.06,14.14,0.08,21.22-0.01c1.9-0.02,2.02,0.61,1.42,2.13c-10.87,27.78-21.7,55.58-32.58,83.36
		c-1.25,3.19-2.92,6.19-4.87,9.03c-5.05,7.36-12.22,11.09-20.93,11.77c-5.32,0.42-10.67,0.25-15.94-0.98
		c-1.46-0.34-1.88-0.75-1.67-2.23c0.78-5.36,1.52-10.73,2.1-16.12c0.19-1.78,0.95-2.06,2.42-1.68c0.64,0.17,1.28,0.38,1.94,0.47
		c9,1.26,12.16-0.89,15.87-9.29c1.82-4.11,1.58-7.46-0.17-11.47c-8.98-20.66-17.65-41.45-26.57-62.14c-1.14-2.65-0.48-2.9,1.97-2.85
		c6.97,0.12,13.95,0.1,20.93,0.01c1.81-0.02,2.63,0.53,3.24,2.31c4.65,13.66,9.45,27.28,14.2,40.91
		C511.16,293.19,511.45,293.96,512.03,295.56z"/>
	<path class="st0" d="M440.61,291.88c-7.74,0-15.49,0.1-23.23-0.06c-2.73-0.06-2.82,1.06-2.01,3.02c2.64,6.4,7.79,9.53,14.36,10.23
		c6.48,0.69,12.32-1.07,16.73-6.21c0.87-1.02,1.46-1.06,2.57-0.34c4.38,2.88,8.82,5.68,13.29,8.42c1.46,0.9,1.75,1.55,0.55,3.03
		c-5.39,6.66-12.31,10.71-20.63,12.43c-9.75,2.02-19.35,1.68-28.58-2.34c-12.95-5.64-19.95-15.64-21.54-29.61
		c-1.18-10.36,0.8-19.94,7-28.4c6.4-8.72,15.38-13.32,25.94-14.52c12.44-1.41,23.8,1.17,32.53,10.94c6.17,6.91,8.71,15.3,9.1,24.38
		c0.12,2.9,1.31,6.68-0.57,8.51c-1.74,1.7-5.46,0.44-8.31,0.48C452.08,291.93,446.34,291.88,440.61,291.88z M429.74,277.07
		c4.49,0,8.98-0.01,13.46,0.01c1.04,0,1.91,0.03,1.65-1.48c-0.59-3.35-1.62-6.46-4.32-8.76c-3.82-3.24-8.35-3.48-12.99-2.91
		c-5.79,0.71-11.07,5.47-12.49,10.78c-0.48,1.8-0.31,2.48,1.79,2.4C421.14,276.96,425.44,277.07,429.74,277.07z"/>
	<path class="st0" d="M66.49,273.65c4.02-1.16,7.49-2.42,11.06-3.09c2.77-0.52,2.15-2.18,1.77-3.72c-0.67-2.75-1.57-5.44-2.4-8.14
		c-0.51-1.66-0.29-2.37,1.69-1.75c2.81,0.88,5.67,1.6,8.53,2.32c1.78,0.45,3.08,0.26,3.47-2.07c0.44-2.61,1.31-5.15,2.04-7.71
		c0.8-2.79,1.04-2.84,3.17-0.72c1.97,1.95,3.94,3.89,5.84,5.91c1.25,1.32,2.25,1.39,3.54-0.01c2.07-2.25,4.29-4.35,6.44-6.52
		c1.1-1.11,1.88-1.22,2.33,0.57c0.69,2.76,1.68,5.47,2.17,8.26c0.45,2.52,1.74,2.83,3.82,2.22c2.46-0.72,4.93-1.41,7.42-2.06
		c2.64-0.69,3-0.29,2.28,2.51c-0.71,2.76-1.35,5.54-2.21,8.26c-0.47,1.5-0.09,2.06,1.37,2.41c3.05,0.73,6.07,1.6,9.09,2.42
		c1.84,0.5,2.17,1.24,0.63,2.65c-2.12,1.93-4.07,4.03-6.17,5.99c-1.53,1.42-1.54,2.61,0.04,4.04c2.05,1.86,3.96,3.87,5.93,5.82
		c1.84,1.83,1.72,2.29-0.86,2.99c-2.66,0.72-5.31,1.5-8.01,2.05c-1.91,0.39-2.6,1.02-1.86,3.08c0.94,2.58,1.5,5.3,2.23,7.95
		c0.55,2-0.02,2.97-2.23,2.39c-2.48-0.65-4.98-1.24-7.43-2c-2.4-0.75-3.55,0.09-4.05,2.48c-0.5,2.4-1.21,4.76-1.88,7.12
		c-0.72,2.55-1.23,2.69-3.06,0.87c-2.1-2.09-4.2-4.18-6.22-6.34c-1.1-1.18-1.96-1.18-3.08-0.01c-2.05,2.13-4.17,4.19-6.31,6.23
		c-0.58,0.55-0.99,1.74-1.99,1.3c-0.8-0.35-0.73-1.44-0.94-2.27c-0.7-2.66-1.5-5.29-2.28-7.93c-0.48-1.61-1.56-1.98-3.11-1.55
		c-2.93,0.8-5.89,1.52-8.82,2.32c-0.54,0.15-1.06,0.6-1.53,0.01c-0.4-0.49-0.21-1.05-0.05-1.62c0.91-3.09,1.73-6.21,2.71-9.28
		c0.5-1.57,0.04-2.28-1.52-2.64c-3.05-0.71-6.08-1.53-9.12-2.31c-1.59-0.41-2.16-1.05-0.71-2.44c2.28-2.18,4.39-4.53,6.73-6.64
		c1.37-1.24,1.23-2.01-0.05-3.19C72.16,279.29,69.56,276.64,66.49,273.65z"/>
	<path class="st1" d="M127.59,248.25c-0.02-1.13,0.39-2.11,0.87-3.04c0.44-0.84,1.15-1.57,1.46-2.44
		c2.41-6.71,7.38-9.79,14.24-10.79c4.11-0.6,8.12-1.96,12.14-3.1c1.77-0.5,2.11,0.16,1.72,1.64c-1.72,6.61-3.42,13.23-5.25,19.81
		c-0.84,3.02-12.22,9.43-15.11,8.59c-1.78-0.52-4.57-0.28-5.05-1.91c-0.52-1.76,2.09-2.86,3.37-4.18c2.08-2.15,3.87-4.66,7.31-5.11
		c1.63-0.21,1.92-1.94,1.65-3.48c-0.28-1.55-1.38-2.24-2.85-2.31c-1.46-0.07-2.65,0.43-2.99,2.05c-1,4.84-5.56,6.8-8.31,10.21
		c-0.7,0.87-1.44,0.38-1.71-0.47C128.51,251.92,128.08,250.08,127.59,248.25z"/>
	<path class="st1" d="M67.53,307.43c1.99,0.45,3.9,0.7,5.67,1.34c1.65,0.59,1.57,1.96,0.31,2.85c-3.42,2.42-5.32,6.83-10.18,7.45
		c-1.36,0.17-1.8,1.9-1.55,3.32c0.26,1.47,1.23,2.34,2.74,2.48c1.58,0.15,3.11-0.37,3.39-1.96c0.86-4.98,5.42-6.9,8.18-10.29
		c0.84-1.03,1.33-0.37,1.72,0.67c1.45,3.81,1.2,7.04-0.81,10.96c-3.1,6.07-7.27,9.44-13.97,10.4c-4.2,0.6-8.27,2.1-12.38,3.25
		c-1.77,0.5-2.32,0.04-1.82-1.77c1.85-6.67,3.65-13.35,5.45-20.03c0.23-0.86,0.63-1.61,1.41-2.07c3.53-2.07,7.07-4.13,10.62-6.16
		C66.71,307.64,67.19,307.55,67.53,307.43z"/>
	<path class="st1" d="M53.84,280.67c-5.88,1.58-9.81-1-13.38-4.93c-3.26-3.6-6.77-6.99-10.27-10.37c-1.7-1.64-1.35-2.42,0.77-2.98
		c6.42-1.71,12.83-3.46,19.25-5.2c1.16-0.31,2.26-0.15,3.3,0.46c3.13,1.81,6.3,3.56,9.41,5.41c1.57,0.93,3.69,6.08,3.38,7.82
		c-0.16,0.89-0.67,1.13-1.42,0.83c-4.05-1.64-8.91-1.16-12.18-4.93c-1.02-1.18-2.68-0.91-3.91,0.11c-1.3,1.08-1.25,2.56-0.64,3.92
		c0.67,1.49,2.03,2.09,3.58,1.54c4.69-1.67,8.64,1.2,12.9,2.06c1.2,0.24,0.36,1.34-0.18,2.02
		C61.67,280.02,58.27,282.07,53.84,280.67z"/>
	<path class="st1" d="M153.78,280.79c-4.48,0.99-8.17-0.42-11.14-3.97c-1.29-1.54-1.39-2.33,0.85-2.76
		c4.12-0.78,7.98-3.12,12.47-1.61c1.59,0.53,2.67-0.85,3.13-2.3c0.46-1.44-0.25-2.6-1.44-3.42c-1.25-0.86-2.75-0.92-3.66,0.21
		c-3.16,3.92-8.08,3.29-12.13,4.87c-1.25,0.49-1.68-0.38-1.37-1.62c0.89-3.64,2.31-6.45,5.86-8.77c5.83-3.82,11.27-4.92,17.79-2.24
		c3.74,1.54,7.86,2.15,11.81,3.18c1.85,0.48,2.79,1.02,0.87,2.87c-3.91,3.77-7.66,7.71-11.43,11.63
		C162.2,280.16,158.56,282.04,153.78,280.79z"/>
	<path class="st1" d="M106.06,232.62c-1.52-5.47,1.57-9.04,5.35-12.48c3.53-3.21,6.83-6.67,10.19-10.07
		c1.37-1.38,2.14-1.78,2.75,0.65c1.61,6.45,3.42,12.84,5.18,19.25c0.23,0.83,0.62,1.65,0.15,2.48c-2,3.56-3.99,7.14-6.09,10.65
		c-0.41,0.69-1.21,1.27-1.96,1.62c-1.89,0.87-4.15,2.29-5.89,1.04c-1.34-0.97,0.14-3.14,0.51-4.73c0.7-3.01,1-6.18,3.78-8.35
		c1.13-0.88,1.08-2.4,0.07-3.61c-1.03-1.24-2.39-1.65-3.86-1.07c-1.4,0.55-2.22,1.81-1.72,3.23c1.62,4.59-1.08,8.51-1.79,12.73
		c-0.29,1.72-1.13,1.54-2.35,0.56C106.57,241.44,105.47,237.42,106.06,232.62z"/>
	<path class="st1" d="M68.27,259.16c-1.07-0.09-1.98-0.29-2.83-0.79c-2.88-1.67-5.77-3.33-8.66-4.98c-1.29-0.74-2.26-1.69-2.65-3.2
		c-1.68-6.5-3.31-13.01-5.13-19.47c-0.59-2.11,0.33-2.12,1.78-1.74c6.63,1.7,13.24,3.44,19.86,5.16c1.31,0.34,2.04,1.28,2.67,2.4
		c1.22,2.16,2.24,4.49,3.8,6.37c2.63,3.17,2.09,6.47,1.09,9.89c-0.56,1.9-1.75,2.35-3,0.64c-2.47-3.38-6.78-5.34-7.47-10.17
		c-0.23-1.57-2.27-1.39-3.72-1.24c-1.54,0.16-1.98,1.37-2.23,2.57c-0.29,1.38,0.48,2.92,1.59,3.01c3.95,0.34,5.73,3.49,8.16,5.76
		c1.12,1.05,3.29,2.27,2.81,3.49c-0.51,1.3-2.82,1.6-4.5,1.92C69.28,258.91,68.72,259.06,68.27,259.16z"/>
	<path class="st1" d="M145.01,321.77c0.18-1.52-0.78-2.65-1.97-2.73c-2.97-0.2-4.41-2.39-6.24-4.11c-0.28-0.26-0.6-0.5-0.8-0.81
		c-1.07-1.63-3.93-2.26-3.31-4.71c0.34-1.34,7.18-1.93,8.82-1.01c2.99,1.68,5.96,3.4,8.94,5.09c1.33,0.75,2.1,1.86,2.48,3.33
		c1.61,6.25,3.22,12.5,4.91,18.73c0.59,2.17,0.33,3.02-2.2,2.29c-6.37-1.83-12.79-3.49-19.19-5.22c-1.37-0.37-2.31-1.22-3-2.46
		c-1.48-2.66-2.83-5.41-4.55-7.91c-2.24-3.26-0.55-6.17,0.36-9.19c0.24-0.78,0.66-1.13,1.42-0.38c2.37,2.33,4.78,4.62,7.15,6.95
		c0.81,0.8,0.59,1.95,0.87,2.94c0.48,1.71,1.66,2.84,3.58,2.61C144.2,324.93,145.04,323.65,145.01,321.77z"/>
	<path class="st1" d="M151.5,286.09c1.08,0,1.99,0.19,2.78-0.03c5.12-1.45,8.54,1.19,11.76,4.59c3.47,3.67,7.01,7.28,10.63,10.81
		c1.54,1.5,1.81,2.27-0.61,2.9c-6.43,1.67-12.83,3.46-19.25,5.2c-1.14,0.31-2.27,0.26-3.32-0.35c-3.22-1.85-6.47-3.65-9.65-5.56
		c-2.87-1.72-2.55-4.91-3.17-7.6c-0.23-0.98,0.72-1.13,1.6-0.82c4.02,1.41,8.7,1.05,11.86,4.82c0.95,1.13,2.71,0.95,3.88-0.19
		c1.08-1.06,1.58-2.4,0.7-3.87c-0.89-1.5-2.08-2.01-3.85-1.43c-4.65,1.5-8.58-1.5-12.88-2.25c-0.87-0.15-0.44-1.09,0.05-1.61
		C144.67,287.88,147.12,284.73,151.5,286.09z"/>
	<path class="st1" d="M105.99,334.32c-0.67-4.54,0.08-8.53,3.85-11.63c1.76-1.45,2.53-1.28,3,0.99c0.48,2.32,1.12,4.61,1.83,6.88
		c0.41,1.33,0.51,2.51,0.02,3.87c-0.62,1.73-0.56,3.54,1.48,4.35c1.52,0.6,3.01,0.3,4.03-1.22c1.17-1.73,0.36-3.01-0.88-4.26
		c-3.16-3.2-2.86-7.68-4.17-11.57c-0.36-1.08,0.62-1.26,1.42-1.1c3.23,0.68,5.98,1.43,8.25,4.67c4.53,6.49,5.75,12.75,2.48,20.09
		c-1.49,3.34-2.06,7.09-2.94,10.69c-0.48,1.98-1.2,2.16-2.61,0.73c-4.84-4.88-9.74-9.71-14.58-14.59
		C104.86,339.9,106.49,336.92,105.99,334.32z"/>
	<path class="st0" d="M100.65,231.31c0.1,1.62,0.21,3.23,0.3,4.85c0.23,4.01-2.2,6.53-5.03,8.79c-0.92,0.73-1.32,0.14-1.56-0.75
		c-0.87-3.21-1.77-6.41-2.65-9.61c-0.25-0.91,0.16-1.71,0.56-2.45c1.04-1.92,0.09-3.16-1.45-4.01c-1.37-0.76-2.84-0.57-3.86,0.75
		c-1.13,1.46-1.16,2.8,0.33,4.26c3.35,3.29,3.18,7.99,4.51,12.09c0.34,1.04-0.44,1.26-1.38,1.06c-3.45-0.71-6.99-1.21-8.46-5.21
		c-0.42-1.15-1.04-2.29-1.83-3.22c-3.34-3.94-3.23-8.16-1.67-12.81c1.57-4.67,2.69-9.5,3.93-14.27c0.54-2.08,1.28-2.2,2.77-0.69
		c4.5,4.55,9,9.1,13.66,13.49C101.25,225.83,100.64,228.6,100.65,231.31z"/>
	<path class="st1" d="M100.71,330.77c0.1,2.46,0.14,4.15,0.37,5.86c0.42,3.06-1.14,5.59-3.24,7.61c-4.33,4.17-8.73,8.27-12.8,12.7
		c-1.37,1.48-2.06,0.84-2.48-0.7c-1.76-6.5-3.51-13.01-5.21-19.53c-0.21-0.81-0.39-1.89-0.03-2.53c2.16-3.79,3.79-7.92,6.69-11.23
		c1.57-1.8,4.05-1.97,6.29-2.4c1.21-0.23,1.66,0.59,1.32,1.55c-1.41,4.02-1.02,8.74-4.83,11.86c-1.27,1.04-0.86,2.64,0.06,3.89
		c1,1.35,2.49,1.49,3.87,0.87c1.28-0.57,2.25-1.8,1.7-3.24c-1.83-4.81,1.35-8.8,2.02-13.18c0.23-1.5,1.16-0.82,1.81-0.18
		C98.88,324.71,102.29,326.94,100.71,330.77z"/>
	<path class="st1" d="M53.14,286.09c1.14,0,2.32,0.18,3.43-0.03c4.1-0.78,5.91,2.43,8.26,4.64c0.71,0.67,0.31,1.6-0.57,1.75
		c-4.21,0.72-8.1,3.46-12.71,1.88c-1.58-0.54-2.85,0.28-3.67,1.91c-0.88,1.73,0.01,2.72,1.13,3.67c1.31,1.11,2.68,0.93,3.82-0.27
		c3.36-3.55,8.23-3.07,12.34-4.6c1.31-0.49,1.28,0.84,1.09,1.65c-0.84,3.51-2.08,6.29-5.59,8.6c-5.93,3.9-11.46,5-18.07,2.27
		c-3.65-1.51-7.67-2.13-11.53-3.14c-1.9-0.5-2.77-1.15-0.92-2.96c4.72-4.59,9.34-9.27,13.97-13.95c0.94-0.95,2-1.4,3.31-1.39
		c1.91,0.01,3.82,0,5.73,0C53.14,286.1,53.14,286.1,53.14,286.09z"/>
	<path class="st1" d="M201.15,333.21c5.97,0,9.77,3.71,9.74,9.51c-0.03,5.69-3.96,9.43-9.92,9.4c-5.83-0.02-9.62-3.87-9.59-9.72
		C191.41,336.84,195.26,333.21,201.15,333.21z M206.29,342.7c0.06-2.93-2.21-5.41-5.02-5.48c-2.84-0.07-5.17,2.22-5.29,5.21
		c-0.11,2.99,2.33,5.68,5.15,5.68C203.87,348.1,206.23,345.62,206.29,342.7z"/>
	<path class="st1" d="M365.02,350.71c-3.86,1.42-6.45,1.05-8.21-1.18c-1.82-2.3-1.87-6.33-0.12-8.84c0.98-1.41,2.31-2.36,4.05-2.28
		c2.36,0.1,4.67,0.81,7.08,0.11c1.11-0.32,1.43,0.5,1.42,1.53c-0.03,3.91,0.08,7.82-0.07,11.73c-0.1,2.69-1.47,4.75-4.1,5.63
		c-3.05,1.03-6.04,0.61-8.79-1.01c-1.16-0.68-0.16-1.51,0.27-2.11c0.41-0.57,0.48-1.91,1.78-1.12c0.33,0.2,0.62,0.46,0.95,0.62
		C362.41,355.34,364.39,354.28,365.02,350.71z M365.26,344.81c-0.25-1.61-1.14-2.96-3.04-2.91c-1.79,0.04-2.72,1.49-2.67,3.12
		c0.06,1.71,0.96,3.18,2.99,3.08C364.36,347.99,365.1,346.71,365.26,344.81z"/>
	<path class="st1" d="M422.26,346.21c1.03-1.19,1.18-2.54,1.59-3.78c1.2-3.71,1.19-3.71,5.74-3.26c-1.52,3.84-3.02,7.59-4.48,11.36
		c-0.66,1.72-2.09,0.85-3.19,1.01c-1.06,0.15-2.01,0.09-2.47-1.26c-0.73-2.16-1.59-4.28-2.53-6.35c-0.41-0.9-0.52-2.96-1.55-2.37
		c-1.48,0.85-4.22,0.55-4.22,3.34c0,1.53-0.12,3.06-0.01,4.58c0.12,1.58-0.35,2.17-2.04,2.14c-1.62-0.03-2.47-0.24-2.37-2.17
		c0.16-2.95,0.1-5.92,0.02-8.87c-0.05-1.62,0.55-2.23,2.17-2.12c3.17,0.22,6.35,0.39,9.53,0.46c1.2,0.03,1.64,0.54,1.94,1.61
		C420.9,342.41,421.6,344.23,422.26,346.21z"/>
	<path class="st1" d="M383,352.13c-1.29,0.17-2.69-0.19-3.96-0.87c-0.88-0.48-2.63-0.82-1.92-2.16c0.61-1.15,1.62-3.09,3.74-1.48
		c0.56,0.43,1.4,0.59,2.14,0.67c1.18,0.13,2.46,0.01,2.74-1.41c0.26-1.32-0.94-1.74-1.89-2.14c-1.14-0.48-2.34-0.82-3.46-1.32
		c-1.94-0.86-2.96-2.47-2.98-4.51c-0.02-2.15,1-3.92,2.98-4.84c2.84-1.33,5.73-1.31,8.51,0.25c0.62,0.35,2.07,0.64,1.02,1.72
		c-0.77,0.8-1.16,2.62-2.97,1.84c-0.34-0.15-0.62-0.49-0.97-0.57c-1.4-0.34-3.15-0.86-3.82,0.76c-0.75,1.83,1.3,1.9,2.35,2.52
		c0.23,0.14,0.56,0.11,0.83,0.21c3.9,1.4,5.51,3.4,5.05,6.26C389.85,350.33,387.28,352.15,383,352.13z"/>
	<path class="st1" d="M278.11,342.61c0-2.28,0.06-4.56-0.02-6.84c-0.05-1.42,0.31-2.1,1.89-2.01c2.09,0.12,4.19-0.04,6.28,0.07
		c3.47,0.18,5.51,2.16,5.53,5.21c0.02,3.25-2.03,5.77-5.5,5.49c-3.79-0.3-3.96,1.53-3.69,4.27c0.16,1.56,0.27,2.87-2.17,2.85
		c-2.28-0.02-2.42-1.04-2.33-2.77C278.18,346.8,278.11,344.7,278.11,342.61z M284.2,341.24c1.32-0.22,3.07-0.07,3.01-2.1
		c-0.05-1.81-1.67-1.71-2.95-1.91c-1.47-0.23-1.77,0.56-1.66,1.81C282.69,340.11,282.22,341.52,284.2,341.24z"/>
	<path class="st0" d="M212.87,345.1c0-1.24,0.14-2.5-0.03-3.71c-0.39-2.73,1.16-3.18,3.21-2.66c1.18,0.3,2.02,0.42,3.26-0.1
		c2.8-1.18,5.3,0.46,5.94,3.49c0.56,2.64,0.18,5.32,0.29,7.98c0.08,1.95-1.36,1.37-2.39,1.46c-1.14,0.1-2.06,0.03-1.96-1.57
		c0.11-1.9,0.08-3.81-0.01-5.71c-0.05-1.07-0.44-2.23-1.68-2.33c-1.38-0.12-2.03,1.02-2.19,2.19c-0.19,1.41-0.02,2.85-0.13,4.28
		c-0.1,1.39,0.85,3.22-2.05,3.25c-3.04,0.04-2.15-1.88-2.25-3.4C212.82,347.2,212.87,346.15,212.87,345.1z"/>
	<path class="st0" d="M242.13,345.09c0-1.24,0.14-2.5-0.03-3.71c-0.39-2.74,1.18-3.17,3.21-2.65c1.18,0.3,2.03,0.41,3.26-0.11
		c2.8-1.17,5.3,0.46,5.93,3.5c0.55,2.64,0.18,5.32,0.29,7.98c0.08,1.95-1.37,1.36-2.39,1.45c-1.15,0.11-2.05,0.01-1.96-1.58
		c0.11-1.9,0.08-3.81-0.01-5.71c-0.05-1.07-0.45-2.23-1.69-2.33c-1.38-0.11-2.07,1.03-2.18,2.19c-0.18,1.89-0.2,3.81-0.08,5.7
		c0.11,1.74-0.84,1.8-2.11,1.74c-1.14-0.05-2.37,0.24-2.27-1.62C242.21,348.34,242.13,346.71,242.13,345.09z"/>
	<path class="st0" d="M309.25,345.15c0-1.24-0.01-2.48,0-3.72c0.02-2.77,0.83-3.59,3.38-2.63c1.26,0.47,1.96,0.15,2.98-0.21
		c2.87-1.03,5.36,0.46,6,3.47c0.56,2.64,0.18,5.32,0.31,7.97c0.1,1.92-1.28,1.46-2.34,1.51c-1.09,0.06-2.11,0.13-2.01-1.52
		c0.11-1.8,0.06-3.62,0-5.43c-0.04-1.29-0.37-2.72-1.92-2.67c-1.42,0.05-1.98,1.37-2.04,2.69c-0.08,1.52-0.09,3.05-0.01,4.57
		c0.07,1.49-0.01,2.44-2.04,2.44c-1.99,0-2.48-0.71-2.33-2.48C309.34,347.83,309.25,346.48,309.25,345.15z"/>
	<path class="st0" d="M340.23,345.26c0-1.62,0.01-3.24,0-4.86c-0.01-0.94,0.17-1.98,1.31-1.7c2.47,0.59,4.81-0.2,7.21-0.26
		c2.21-0.06,3.4,1.44,3.84,3.52c0.58,2.73,0.23,5.51,0.31,8.26c0.05,1.75-1.26,1.3-2.22,1.32c-0.99,0.02-2.2,0.35-2.11-1.4
		c0.08-1.71,0.03-3.43,0.01-5.14c-0.02-1.38-0.17-3.02-1.83-3.03c-1.74-0.01-2.14,1.61-2.17,3.13c-0.03,1.52-0.13,3.06,0.02,4.57
		c0.19,1.86-0.83,1.89-2.23,1.93c-1.56,0.05-2.3-0.35-2.16-2.05C340.33,348.12,340.23,346.69,340.23,345.26z"/>
	<path class="st1" d="M453,346.4c1.11,2.5,2.84,3.04,4.5,1.89c1.85-1.27,2.97,0.01,3.52,0.93c0.73,1.21-0.89,1.77-1.77,2.23
		c-2.69,1.41-6.46,0.81-8.51-1.22c-1.91-1.89-2.45-5.24-1.27-7.97c1.19-2.77,3.57-4.11,6.93-3.89c3.29,0.21,5.87,3.28,5.75,6.64
		c-0.04,1.2-0.57,1.41-1.58,1.39C458.21,346.38,455.83,346.4,453,346.4z M458,343.47c-1.74-2.94-2.83-2.92-4.72,0
		C454.84,343.47,456.3,343.47,458,343.47z"/>
	<path class="st1" d="M261.5,346.4c0.68,2.21,2.35,3.03,3.77,2.16c2.12-1.3,3.24-0.39,4.54,0.94c-2.43,2.82-6.05,3.54-9.19,1.83
		c-2.88-1.57-4.1-4.99-3-8.41c1.01-3.17,3.71-4.84,7.35-4.53c3.25,0.27,5.85,3.55,5.59,6.8c-0.11,1.34-0.89,1.22-1.74,1.22
		C266.46,346.4,264.11,346.4,261.5,346.4z M266.34,343.55c-0.31-1.59-1.12-2.38-2.4-2.22c-1.1,0.14-2.05,0.78-2.21,2.22
		C263.29,343.55,264.7,343.55,266.34,343.55z"/>
	<path class="st1" d="M395.63,346.4c1.14,2.51,2.85,3.02,4.54,1.88c1.84-1.25,2.98,0.04,3.51,0.96c0.69,1.18-0.91,1.76-1.81,2.22
		c-2.71,1.4-6.46,0.79-8.5-1.25c-1.89-1.89-2.42-5.27-1.24-7.98c1.2-2.76,3.6-4.09,6.95-3.86c3.28,0.22,5.87,3.33,5.72,6.67
		c-0.05,1.22-0.63,1.39-1.61,1.36c-1.24-0.03-2.48-0.01-3.71-0.01C398.33,346.4,397.2,346.4,395.63,346.4z M400.55,343.41
		c-0.18-1.26-0.88-2.07-2.01-2.09c-1.31-0.03-2.32,0.65-2.57,2.17C397.52,343.67,398.99,343.78,400.55,343.41z"/>
	<path class="st1" d="M444.29,338.37c0.49-0.01,1.35,0,2.13,0.45c0.74,0.42,2.33,0.41,1.63,1.67c-0.53,0.95-1.06,3.02-3.09,1.79
		c-1.36-0.83-2.42-0.22-3.22,0.81c-1.05,1.34-1.11,2.85-0.06,4.23c0.79,1.03,1.86,1.74,3.2,0.97c2.04-1.17,2.74,0.71,3.15,1.73
		c0.62,1.55-1.2,1.69-2.09,1.88c-2.92,0.63-5.76,0.37-7.82-2.16c-1.84-2.26-2.2-4.85-0.94-7.48
		C438.51,339.49,440.86,338.26,444.29,338.37z"/>
	<path class="st1" d="M329.52,352.13c-3.11-0.01-4.39-1.27-4.47-4.34c-0.03-1.24,0-2.48-0.01-3.72c-0.01-0.83,0.21-1.8-1.15-1.8
		c-0.52,0-0.94-0.3-0.97-0.85c-0.04-0.66,0.02-1.33,0.04-1.99c3.15,0.59,0.77-4.88,4.3-3.91c0.53,0.15,1.64,0.05,1.54,0.32
		c-1.27,3.4,3.45,2.35,3.44,4.72c0,0.92-0.11,1.76-1.35,1.73c-0.98-0.03-2.07-0.07-1.81,1.4c0.3,1.66-1.1,4.12,1.12,4.82
		c1.71,0.53,1.85,1.24,1.7,2.53C331.7,352.71,330.31,351.89,329.52,352.13z"/>
	<path class="st1" d="M233.16,341.81c0,2.67-0.1,5.34,0.03,8.01c0.1,2.05-1.23,1.69-2.44,1.75c-1.27,0.06-2.15,0-2.12-1.74
		c0.1-5.34,0.09-10.68,0.01-16.02c-0.03-1.84,1.08-1.65,2.24-1.64c1.16,0.01,2.35-0.19,2.3,1.64
		C233.1,336.47,233.16,339.14,233.16,341.81z"/>
	<path class="st1" d="M292.6,345.02c0-1.42,0.11-2.86-0.02-4.27c-0.19-2.01,0.81-2.42,2.55-2.3c1.47,0.1,2.92,1.21,4.49-0.01
		c0.45-0.35,1.63-0.27,1.62,0.91c-0.01,1.07,0.29,2.7-1.08,2.83c-3.18,0.28-3.23,2.36-3.21,4.65c0.01,0.85-0.1,1.72,0.02,2.56
		c0.25,1.78-0.48,2.21-2.21,2.24c-1.86,0.02-2.3-0.68-2.17-2.34C292.69,347.87,292.6,346.44,292.6,345.02z"/>
	<path class="st0" d="M235.56,345.19c0-1.24,0.06-2.48-0.01-3.72c-0.09-1.58-0.03-2.6,2.16-2.61c2.35-0.01,2.09,1.29,2.08,2.73
		c-0.02,2.48-0.06,4.96,0.02,7.44c0.05,1.62-0.07,2.57-2.22,2.61c-2.42,0.05-2.03-1.33-2.03-2.73
		C235.56,347.67,235.56,346.43,235.56,345.19z"/>
	<path class="st0" d="M333.65,345.24c0-1.24,0.04-2.48-0.01-3.72c-0.05-1.51-0.17-2.67,2.11-2.66c2.28,0.01,2.15,1.18,2.13,2.69
		c-0.04,2.77-0.09,5.54,0.02,8.3c0.07,1.76-0.95,1.71-2.18,1.73c-1.28,0.02-2.25-0.03-2.1-1.76
		C333.76,348.3,333.65,346.76,333.65,345.24z"/>
	<path class="st0" d="M430.6,345.33c0-1.43,0.09-2.87-0.02-4.29c-0.13-1.58,0.35-2.14,2.04-2.15c1.77-0.01,2.33,0.53,2.25,2.28
		c-0.13,2.76-0.16,5.54,0.01,8.3c0.12,1.96-0.83,2.07-2.39,2.14c-1.89,0.09-1.97-0.88-1.9-2.27
		C430.66,348,430.6,346.66,430.6,345.33z"/>
	<path class="st0" d="M306.9,345.42c0,1.24-0.1,2.49,0.02,3.72c0.18,1.8-0.38,2.46-2.33,2.49c-2.19,0.04-1.93-1.2-1.92-2.54
		c0.02-2.67,0.08-5.35-0.02-8.02c-0.06-1.52,0.27-2.19,2-2.19c1.72,0.01,2.46,0.43,2.28,2.24
		C306.79,342.55,306.9,343.99,306.9,345.42z"/>
	<path class="st1" d="M238.31,337.2c-1.92,0.11-2.83-0.7-2.93-2.06c-0.09-1.32,0.58-2.38,2.11-2.47c1.56-0.09,2.56,0.61,2.63,2.22
		C240.19,336.37,239.29,337.07,238.31,337.2z"/>
	<path class="st1" d="M305.21,332.65c1.1,0.07,2.01,0.76,2.03,2.23c0.03,1.63-0.94,2.38-2.51,2.34c-1.49-0.04-2.27-0.96-2.22-2.35
		C302.56,333.49,303.38,332.63,305.21,332.65z"/>
	<path class="st1" d="M338.26,335.03c-0.17,1.41-0.95,2.17-2.4,2.19c-1.49,0.03-2.36-0.83-2.38-2.21c-0.02-1.51,0.87-2.45,2.51-2.36
		C337.46,332.74,338.16,333.59,338.26,335.03z"/>
	<path class="st1" d="M435.21,335.13c-0.21,1.37-1.02,2.11-2.46,2.1c-1.49-0.01-2.33-0.89-2.31-2.27c0.02-1.53,0.95-2.42,2.57-2.29
		C434.47,332.77,435.15,333.65,435.21,335.13z"/>
</g>
</svg>
